# xmcd
#
# Track frame offsets: 
#        150
#        16750
#        35083
#        52746
#        70391
#        86197
#        102418
#        120520
#        133792
#        152323
#        173497
#
# Disc length: 2528 seconds
#
# Revision: 6
# Processed by: cddbd v1.5.2PL0 Copyright (c) Steve Scherf et al.
# Submitted via: ExactAudioCopy v0.99pb5
#
DISCID=8409de0b
DTITLE=Samael - Above
DYEAR=2009
DGENRE=Industrial - Black Metal
TTITLE0=Under One Flag
TTITLE1=Virtual War
TTITLE2=Polygames
TTITLE3=Earth Country
TTITLE4=Illumination
TTITLE5=Black Hole
TTITLE6=In There
TTITLE7=Dark Side 
TTITLE8=God's Snake
TTITLE9=On Top Of It All
TTITLE10=Black Hole [Verso Mix]
EXTD=YEAR: 2009
EXTT0=
EXTT1=
EXTT2=
EXTT3=
EXTT4=
EXTT5=
EXTT6=
EXTT7=
EXTT8=
EXTT9=
EXTT10=
PLAYORDER=
